<svg width="73" height="73" viewBox="0 0 73 73" fill="none" xmlns="http://www.w3.org/2000/svg">
<rect x="1.5" y="1.5" width="70" height="70" rx="35" stroke="#70CBCE" stroke-width="3"/>
<path d="M49.0938 28H23.9062C22.3012 28 21 29.0407 21 30.3244V44.271C21 45.5548 22.3012 46.5955 23.9062 46.5955H49.0938C50.6988 46.5955 52 45.5548 52 44.271V30.3244C52 29.0407 50.6988 28 49.0938 28ZM49.0938 30.3244V32.3004C47.7362 33.1846 45.5719 34.5595 40.9449 37.4573C39.9253 38.0988 37.9054 39.6399 36.5 39.622C35.0948 39.6401 33.0743 38.0985 32.0551 37.4573C27.4289 34.56 25.264 33.1848 23.9062 32.3004V30.3244H49.0938ZM23.9062 44.271V35.2831C25.2936 36.1669 27.2611 37.4072 30.2599 39.2853C31.5833 40.1185 33.9008 41.9577 36.5 41.9465C39.0864 41.9577 41.3746 40.1452 42.7395 39.2857C45.7383 37.4076 47.7063 36.167 49.0938 35.2832V44.271H23.9062Z" fill="#70CBCE"/>
</svg>
